<svg width="34" height="27" viewBox="0 0 34 27" fill="none" xmlns="http://www.w3.org/2000/svg">
<path id="Vector" d="M16.5492 7.13936L5.66711 16.102V25.7754C5.66711 26.0258 5.76661 26.266 5.94372 26.4431C6.12082 26.6202 6.36102 26.7197 6.61149 26.7197L13.2256 26.7026C13.4753 26.7014 13.7143 26.6013 13.8904 26.4244C14.0664 26.2474 14.1653 26.0079 14.1653 25.7582V20.1091C14.1653 19.8587 14.2648 19.6185 14.4419 19.4414C14.619 19.2643 14.8592 19.1648 15.1097 19.1648H18.8871C19.1376 19.1648 19.3778 19.2643 19.5549 19.4414C19.732 19.6185 19.8315 19.8587 19.8315 20.1091V25.7541C19.8311 25.8784 19.8553 26.0015 19.9025 26.1164C19.9498 26.2313 20.0193 26.3358 20.1071 26.4238C20.1948 26.5118 20.299 26.5816 20.4138 26.6293C20.5286 26.6769 20.6516 26.7014 20.7759 26.7014L27.3877 26.7197C27.6381 26.7197 27.8783 26.6202 28.0554 26.4431C28.2325 26.266 28.332 26.0258 28.332 25.7754V16.0956L17.4523 7.13936C17.3244 7.03626 17.165 6.98004 17.0008 6.98004C16.8365 6.98004 16.6771 7.03626 16.5492 7.13936ZM33.7386 13.2312L28.8042 9.16386V0.988552C28.8042 0.800705 28.7296 0.620552 28.5968 0.487724C28.4639 0.354896 28.2838 0.280273 28.0959 0.280273H24.7906C24.6028 0.280273 24.4226 0.354896 24.2898 0.487724C24.157 0.620552 24.0824 0.800705 24.0824 0.988552V5.27423L18.798 0.926578C18.2909 0.509271 17.6545 0.281108 16.9978 0.281108C16.3411 0.281108 15.7047 0.509271 15.1976 0.926578L0.257045 13.2312C0.185325 13.2904 0.125987 13.3633 0.0824235 13.4455C0.0388596 13.5277 0.0119231 13.6177 0.00315311 13.7103C-0.00561692 13.803 0.0039514 13.8964 0.0313114 13.9854C0.0586713 14.0743 0.103287 14.157 0.162608 14.2286L1.6677 16.0584C1.72686 16.1303 1.79963 16.1899 1.88184 16.2336C1.96404 16.2774 2.05408 16.3046 2.14679 16.3135C2.2395 16.3224 2.33306 16.313 2.42211 16.2857C2.51117 16.2585 2.59397 16.2139 2.66578 16.1546L16.5492 4.71941C16.6771 4.61631 16.8365 4.56009 17.0008 4.56009C17.165 4.56009 17.3244 4.61631 17.4523 4.71941L31.3363 16.1546C31.408 16.2139 31.4907 16.2585 31.5796 16.2859C31.6685 16.3132 31.762 16.3228 31.8546 16.314C31.9473 16.3053 32.0373 16.2783 32.1195 16.2348C32.2017 16.1912 32.2745 16.1319 32.3338 16.0601L33.8389 14.2304C33.8982 14.1583 33.9426 14.0752 33.9696 13.9859C33.9967 13.8966 34.0058 13.8028 33.9965 13.7099C33.9871 13.6171 33.9595 13.527 33.9153 13.4448C33.871 13.3626 33.811 13.29 33.7386 13.2312Z" fill="white"/>
</svg>
