<svg width="34" height="27" viewBox="0 0 34 27" fill="none" xmlns="http://www.w3.org/2000/svg">
<path id="Vector" d="M33.5294 14.6461L22.1955 25.98C21.1836 26.992 19.4295 26.2836 19.4295 24.8332V18.3566H10.2545C9.35721 18.3566 8.63535 17.6348 8.63535 16.7375V10.261C8.63535 9.36374 9.35721 8.64187 10.2545 8.64187H19.4295V2.16536C19.4295 0.72164 21.1768 0.00652534 22.1955 1.01848L33.5294 12.3524C34.1569 12.9865 34.1569 14.012 33.5294 14.6461ZM12.953 25.6427V22.9442C12.953 22.4989 12.5887 22.1346 12.1435 22.1346H6.47651C5.2824 22.1346 4.31767 21.1699 4.31767 19.9758V7.02275C4.31767 5.82864 5.2824 4.86391 6.47651 4.86391H12.1435C12.5887 4.86391 12.953 4.4996 12.953 4.05434V1.3558C12.953 0.910538 12.5887 0.546235 12.1435 0.546235H6.47651C2.90094 0.546235 0 3.44717 0 7.02275V19.9758C0 23.5513 2.90094 26.4523 6.47651 26.4523H12.1435C12.5887 26.4523 12.953 26.088 12.953 25.6427Z" fill="white"/>
</svg>
